<?xml version="1.0" encoding="UTF-8" standalone="no"?>
<svg
   xmlns:dc="http://purl.org/dc/elements/1.1/"
   xmlns:cc="http://creativecommons.org/ns#"
   xmlns:rdf="http://www.w3.org/1999/02/22-rdf-syntax-ns#"
   xmlns:svg="http://www.w3.org/2000/svg"
   xmlns="http://www.w3.org/2000/svg"
   xmlns:sodipodi="http://sodipodi.sourceforge.net/DTD/sodipodi-0.dtd"
   xmlns:inkscape="http://www.inkscape.org/namespaces/inkscape"
   data-name="Layer 1"
   viewBox="0 0 145 146"
   x="0px"
   y="0px"
   version="1.1"
   id="svg30"
   sodipodi:docname="icon.svg"
   width="145"
   height="146"
   inkscape:version="0.92.4 (5da689c313, 2019-01-14)">
  <metadata
     id="metadata36">
    <rdf:RDF>
      <cc:Work
         rdf:about="">
        <dc:format>image/svg+xml</dc:format>
        <dc:type
           rdf:resource="http://purl.org/dc/dcmitype/StillImage" />
        <dc:title>Miscellaneous 79 solid</dc:title>
      </cc:Work>
    </rdf:RDF>
  </metadata>
  <defs
     id="defs34" />
  <sodipodi:namedview
     pagecolor="#ffffff"
     bordercolor="#666666"
     borderopacity="1"
     objecttolerance="10"
     gridtolerance="10"
     guidetolerance="10"
     inkscape:pageopacity="0"
     inkscape:pageshadow="2"
     inkscape:window-width="1868"
     inkscape:window-height="1016"
     id="namedview32"
     showgrid="false"
     inkscape:zoom="4.17193"
     inkscape:cx="54.32317"
     inkscape:cy="75.670568"
     inkscape:window-x="1972"
     inkscape:window-y="27"
     inkscape:window-maximized="1"
     inkscape:current-layer="svg30" />
  <title
     id="title2">Miscellaneous 79 solid</title>
  <path
     d="m 135.8394,100.8176 -9.31,-15.859999 a 3.97128,3.97128 0 0 0 -2.94,-1.94 2.9196,2.9196 0 0 0 -0.51,-0.04 3.99831,3.99831 0 0 0 -2.82,1.17 22.1798,22.1798 0 0 1 -15.72,6.500002 c -0.65,0 -1.32,-0.03 -2.05,-0.1 -0.12,-0.01 -0.24,-0.02 -0.36,-0.02 a 4.00089,4.00089 0 0 0 -3.799998,5.25 L 109.5494,129.8976 a 4.01247,4.01247 0 0 0 3.17,2.7 4.46134,4.46134 0 0 0 0.63,0.05 3.97965,3.97965 0 0 0 3.22,-1.63 l 19.04,-25.8 a 4.00235,4.00235 0 0 0 0.23,-4.4 z"
     id="path4"
     style="fill:#0088aa"
     inkscape:connector-curvature="0"
     inkscape:export-xdpi="96"
     inkscape:export-ydpi="96" />
  <path
     d="m 43.309402,90.467603 h -0.15 c -0.14,0.01 -0.27,0.02 -0.4,0.03 a 22.09875,22.09875 0 0 1 -17.92,-6.050002 4.00509,4.00509 0 0 0 -2.77,-1.11 3.3968,3.3968 0 0 0 -0.55,0.04 3.98846,3.98846 0 0 0 -2.9,1.93 L 8.9394025,101.7976 a 4.00983,4.00983 0 0 0 0.28,4.46 l 19.0399995,24.81 a 3.983,3.983 0 0 0 3.17,1.57 4.72477,4.72477 0 0 0 0.64,-0.05 4.01077,4.01077 0 0 0 3.14,-2.64 l 11.79,-34.019997 a 4.15815,4.15815 0 0 0 0.27,-1.46 3.997,3.997 0 0 0 -3.96,-4 z"
     id="path6"
     style="fill:#0088aa"
     inkscape:connector-curvature="0"
     inkscape:export-xdpi="96"
     inkscape:export-ydpi="96" />
  <path
     d="m 72.389522,110.64711 a 43.72757,43.72757 0 0 1 -23.88965,-7.07935 l -1.35284,3.90405 a 47.9728,47.9728 0 0 0 50.83722,-0.22577 l -1.29645,-3.94054 a 43.73766,43.73766 0 0 1 -24.29828,7.34161 z"
     id="path8"
     style="fill:#0088aa"
     inkscape:connector-curvature="0"
     inkscape:export-xdpi="96"
     inkscape:export-ydpi="96" />
  <path
     d="m 32.179402,42.187601 a 20.453,20.453 0 0 1 2.46,-0.72 c 0.27,-0.07 0.55,-0.13 0.82,-0.18 0.3,-0.07 0.61,-0.12006 0.92,-0.17 a 1.57972,1.57972 0 0 1 0.23,-0.04 43.94671,43.94671 0 0 1 71.560058,0 1.57972,1.57972 0 0 1 0.23,0.04 c 0.31,0.05 0.62,0.1 0.92,0.17 0.28,0.05 0.55,0.11 0.82,0.18 a 20.453,20.453 0 0 1 2.46,0.72 c 0.24,0.08 0.47,0.17 0.7,0.26 0.24005,0.09 0.46,0.18 0.69,0.27 a 47.98343,47.98343 0 0 0 -83.199998,0 c 0.23,-0.09 0.45,-0.18 0.69,-0.27 0.22994,-0.09 0.45994,-0.18 0.69994,-0.26 z"
     id="path10"
     style="fill:#0088aa"
     inkscape:connector-curvature="0"
     inkscape:export-xdpi="96"
     inkscape:export-ydpi="96" />
  <path
     d="m 99.079402,41.437601 -5.91,-2.62 a 2.02783,2.02783 0 0 0 -0.81,-0.17 h -39.94 a 2.02833,2.02833 0 0 0 -0.74005,0.14 l -6.38995,2.55 a 24.439,24.439 0 0 1 19.19,21.53 10.077,10.077 0 0 0 15.79,0.4 24.41068,24.41068 0 0 1 18.81,-21.83 z"
     id="path12"
     style="fill:#0088aa"
     inkscape:connector-curvature="0"
     inkscape:export-xdpi="96"
     inkscape:export-ydpi="96" />
  <path
     d="m 81.899402,74.227601 a 22.40669,22.40669 0 0 1 -1.23,-4.16 83.90079,83.90079 0 0 0 -8.56,-0.42 c -2.75,0 -5.45,0.12 -7.99,0.36 a 22.49009,22.49009 0 0 1 -1.21,4.15 83.07185,83.07185 0 0 1 18.99,0.07 z"
     id="path14"
     style="fill:#0088aa"
     inkscape:connector-curvature="0"
     inkscape:export-xdpi="96"
     inkscape:export-ydpi="96" />
  <path
     d="m 61.389402,97.641743 a 2.0001,2.0001 0 0 0 2,2 h 18 a 2.000001,2.000001 0 0 0 0,-4 h -18 a 2.0001,2.0001 0 0 0 -2,2 z"
     id="path16"
     style="fill:#0088aa"
     inkscape:connector-curvature="0"
     inkscape:export-xdpi="96"
     inkscape:export-ydpi="96" />
  <polygon
     points="105.61,31.08 105.61,31.07 105.6,31.07 "
     id="polygon18"
     style="fill:#0088aa"
     transform="translate(8.3894025,11.647602)"
     inkscape:export-xdpi="96"
     inkscape:export-ydpi="96" />
  <polygon
     points="22.4,31.07 22.39,31.07 22.39,31.08 "
     id="polygon20"
     style="fill:#0088aa"
     transform="translate(8.3894025,11.647602)"
     inkscape:export-xdpi="96"
     inkscape:export-ydpi="96" />
  <path
     d="m 84.179402,65.227601 a 20.41074,20.41074 0 0 0 20.359998,20.42 20.61688,20.61688 0 0 0 2.25818,-0.13367 c 0.53345,-0.05432 1.06158,-0.13513 1.58514,-0.235 0.14813,-0.02826 0.29395,-0.06293 0.4411,-0.09448 0.22852,-0.04932 0.46021,-0.08923 0.68555,-0.14679 -0.19775,0.0484 -0.40143,0.0827 -0.60162,0.12567 a 19.74414,19.74414 0 0 0 3.31451,-1.02692 l -0.003,0.0012 a 0.48975,0.48975 0 0 0 0.11,-0.04 c 0.2,-0.08 0.39,-0.17 0.58,-0.26 l -0.37878,0.16467 a 19.96564,19.96564 0 0 0 2.76044,-1.45752 c -0.0721,0.04517 -0.139,0.09869 -0.21167,0.14282 0.17822,-0.105 0.35278,-0.22058 0.52832,-0.33337 0.0902,-0.05884 0.18329,-0.11169 0.27264,-0.17206 0.28241,-0.18951 0.55994,-0.38757 0.829,-0.59454 -0.10541,0.07758 -0.2179,0.14288 -0.32416,0.21875 a 20.71347,20.71347 0 0 0 2.42364,-2.02942 c -0.0204,0.02039 -0.0389,0.0401 -0.0595,0.06067 0.06,-0.05 0.12,-0.11 0.18,-0.17 0.12,-0.12 0.23,-0.24 0.34,-0.36 -0.0617,0.06531 -0.12653,0.12872 -0.18872,0.19238 a 20.77425,20.77425 0 0 0 1.37549,-1.56506 c 0.30609,-0.37817 0.59308,-0.76251 0.85577,-1.15741 A 20.37622,20.37622 0 1 0 84.179402,65.227601 Z m 28.169998,0 a 7.815,7.815 0 1 1 -15.629998,0 8.02736,8.02736 0 0 1 0.53,-2.82 3.94965,3.94965 0 1 0 6.069998,-4.92 8.1416,8.1416 0 0 1 1.22,-0.1 7.82713,7.82713 0 0 1 7.81,7.84 z"
     id="path22"
     style="fill:#0088aa"
     inkscape:connector-curvature="0"
     inkscape:export-xdpi="96"
     inkscape:export-ydpi="96" />
  <path
     d="m 40.239402,85.647601 a 20.42013,20.42013 0 1 0 -20.35,-20.42 20.41074,20.41074 0 0 0 20.35,20.42 z m -5.73,-25.74 c -0.01,0.14 -0.04,0.27 -0.04,0.41 a 3.96,3.96 0 0 0 7.92,0 3.90131,3.90131 0 0 0 -1.25,-2.87 7.8223,7.8223 0 1 1 -6.63,2.46 z"
     id="path24"
     style="fill:#0088aa"
     inkscape:connector-curvature="0"
     inkscape:export-xdpi="96"
     inkscape:export-ydpi="96" />
</svg>
